<mxfile host="app.diagrams.net" agent="Mozilla/5.0 (Windows NT 10.0; Win64; x64) AppleWebKit/537.36 (KHTML, like Gecko) Chrome/118.0.0.0 Safari/537.36" version="28.1.1">
  <diagram name="第 1 页" id="43mGAAuXW9AjNeR-nP99">
    <mxGraphModel dx="1210" dy="534" grid="1" gridSize="10" guides="1" tooltips="1" connect="1" arrows="1" fold="1" page="1" pageScale="1" pageWidth="827" pageHeight="1169" math="0" shadow="0">
      <root>
        <mxCell id="0" />
        <mxCell id="1" parent="0" />
        <mxCell id="Y_yuokefJySz5o6em_tS-1" style="edgeStyle=orthogonalEdgeStyle;rounded=0;orthogonalLoop=1;jettySize=auto;html=1;exitX=0.5;exitY=1;exitDx=0;exitDy=0;" parent="1" edge="1">
          <mxGeometry relative="1" as="geometry">
            <mxPoint x="235.75" y="40" as="sourcePoint" />
            <mxPoint x="235.75" y="40" as="targetPoint" />
          </mxGeometry>
        </mxCell>
        <mxCell id="Y_yuokefJySz5o6em_tS-7" value="" style="group" parent="1" vertex="1" connectable="0">
          <mxGeometry x="79.99999999999996" y="110" width="270.00000000000006" height="250" as="geometry" />
        </mxCell>
        <mxCell id="Y_yuokefJySz5o6em_tS-8" value="10" style="ellipse;whiteSpace=wrap;html=1;aspect=fixed;fillColor=#CCFFCC;" parent="Y_yuokefJySz5o6em_tS-7" vertex="1">
          <mxGeometry x="80" width="80" height="80" as="geometry" />
        </mxCell>
        <mxCell id="Y_yuokefJySz5o6em_tS-9" value="5，8" style="ellipse;whiteSpace=wrap;html=1;aspect=fixed;fillColor=#66FF66;" parent="Y_yuokefJySz5o6em_tS-7" vertex="1">
          <mxGeometry y="170" width="80" height="80" as="geometry" />
        </mxCell>
        <mxCell id="Y_yuokefJySz5o6em_tS-10" value="10，15" style="ellipse;whiteSpace=wrap;html=1;aspect=fixed;fillColor=#66FF66;" parent="Y_yuokefJySz5o6em_tS-7" vertex="1">
          <mxGeometry x="160" y="170" width="80" height="80" as="geometry" />
        </mxCell>
        <mxCell id="Y_yuokefJySz5o6em_tS-11" value="" style="endArrow=none;html=1;rounded=0;entryX=0.37;entryY=0.982;entryDx=0;entryDy=0;entryPerimeter=0;exitX=0.604;exitY=0.015;exitDx=0;exitDy=0;exitPerimeter=0;" parent="Y_yuokefJySz5o6em_tS-7" source="Y_yuokefJySz5o6em_tS-9" target="Y_yuokefJySz5o6em_tS-8" edge="1">
          <mxGeometry width="50" height="50" relative="1" as="geometry">
            <mxPoint x="70" y="170" as="sourcePoint" />
            <mxPoint x="118" y="78" as="targetPoint" />
          </mxGeometry>
        </mxCell>
        <mxCell id="Y_yuokefJySz5o6em_tS-12" value="" style="endArrow=none;html=1;rounded=0;exitX=0.47;exitY=-0.003;exitDx=0;exitDy=0;entryX=0.619;entryY=0.98;entryDx=0;entryDy=0;entryPerimeter=0;exitPerimeter=0;" parent="Y_yuokefJySz5o6em_tS-7" source="Y_yuokefJySz5o6em_tS-10" target="Y_yuokefJySz5o6em_tS-8" edge="1">
          <mxGeometry width="50" height="50" relative="1" as="geometry">
            <mxPoint x="190" y="169" as="sourcePoint" />
            <mxPoint x="140" y="80" as="targetPoint" />
          </mxGeometry>
        </mxCell>
        <mxCell id="Y_yuokefJySz5o6em_tS-13" value="" style="endArrow=classic;startArrow=classic;html=1;rounded=0;exitX=1;exitY=0.5;exitDx=0;exitDy=0;entryX=0;entryY=0.5;entryDx=0;entryDy=0;" parent="Y_yuokefJySz5o6em_tS-7" source="Y_yuokefJySz5o6em_tS-9" target="Y_yuokefJySz5o6em_tS-10" edge="1">
          <mxGeometry width="50" height="50" relative="1" as="geometry">
            <mxPoint x="100" y="210" as="sourcePoint" />
            <mxPoint x="150" y="210" as="targetPoint" />
          </mxGeometry>
        </mxCell>
        <mxCell id="Y_yuokefJySz5o6em_tS-39" value="" style="group" parent="1" vertex="1" connectable="0">
          <mxGeometry x="60" y="570" width="316.21000000000004" height="250" as="geometry" />
        </mxCell>
        <mxCell id="Y_yuokefJySz5o6em_tS-40" value="20，40" style="ellipse;whiteSpace=wrap;html=1;aspect=fixed;fillColor=#CCFFCC;" parent="Y_yuokefJySz5o6em_tS-39" vertex="1">
          <mxGeometry x="109.91000000000003" width="80" height="80" as="geometry" />
        </mxCell>
        <mxCell id="Y_yuokefJySz5o6em_tS-41" value="10，15" style="ellipse;whiteSpace=wrap;html=1;aspect=fixed;fillColor=#66FF66;" parent="Y_yuokefJySz5o6em_tS-39" vertex="1">
          <mxGeometry y="170" width="80" height="80" as="geometry" />
        </mxCell>
        <mxCell id="Y_yuokefJySz5o6em_tS-42" value="20，25，30" style="ellipse;whiteSpace=wrap;html=1;aspect=fixed;fillColor=#66FF66;" parent="Y_yuokefJySz5o6em_tS-39" vertex="1">
          <mxGeometry x="116.21000000000001" y="170" width="80" height="80" as="geometry" />
        </mxCell>
        <mxCell id="Y_yuokefJySz5o6em_tS-43" value="" style="endArrow=none;html=1;rounded=0;entryX=0.37;entryY=0.982;entryDx=0;entryDy=0;entryPerimeter=0;exitX=0.604;exitY=0.015;exitDx=0;exitDy=0;exitPerimeter=0;" parent="Y_yuokefJySz5o6em_tS-39" source="Y_yuokefJySz5o6em_tS-41" target="Y_yuokefJySz5o6em_tS-40" edge="1">
          <mxGeometry width="50" height="50" relative="1" as="geometry">
            <mxPoint x="28.620000000000005" y="170" as="sourcePoint" />
            <mxPoint x="76.62" y="78" as="targetPoint" />
          </mxGeometry>
        </mxCell>
        <mxCell id="Y_yuokefJySz5o6em_tS-44" value="" style="endArrow=none;html=1;rounded=0;exitX=0.469;exitY=0.002;exitDx=0;exitDy=0;entryX=0.525;entryY=0.995;entryDx=0;entryDy=0;entryPerimeter=0;exitPerimeter=0;" parent="Y_yuokefJySz5o6em_tS-39" source="Y_yuokefJySz5o6em_tS-42" target="Y_yuokefJySz5o6em_tS-40" edge="1">
          <mxGeometry width="50" height="50" relative="1" as="geometry">
            <mxPoint x="148.61999999999998" y="169" as="sourcePoint" />
            <mxPoint x="98.62" y="80" as="targetPoint" />
          </mxGeometry>
        </mxCell>
        <mxCell id="Y_yuokefJySz5o6em_tS-45" value="" style="endArrow=classic;startArrow=classic;html=1;rounded=0;exitX=1;exitY=0.5;exitDx=0;exitDy=0;" parent="Y_yuokefJySz5o6em_tS-39" edge="1">
          <mxGeometry width="50" height="50" relative="1" as="geometry">
            <mxPoint x="80.00000000000091" y="209.83000000000004" as="sourcePoint" />
            <mxPoint x="116.21000000000001" y="210" as="targetPoint" />
          </mxGeometry>
        </mxCell>
        <mxCell id="Y_yuokefJySz5o6em_tS-46" value="40，45，50" style="ellipse;whiteSpace=wrap;html=1;aspect=fixed;fillColor=#66FF66;" parent="Y_yuokefJySz5o6em_tS-39" vertex="1">
          <mxGeometry x="236.21" y="170" width="80" height="80" as="geometry" />
        </mxCell>
        <mxCell id="Y_yuokefJySz5o6em_tS-47" value="" style="endArrow=none;html=1;rounded=0;entryX=0.646;entryY=0.978;entryDx=0;entryDy=0;entryPerimeter=0;exitX=0.378;exitY=0.016;exitDx=0;exitDy=0;exitPerimeter=0;" parent="Y_yuokefJySz5o6em_tS-39" source="Y_yuokefJySz5o6em_tS-46" target="Y_yuokefJySz5o6em_tS-40" edge="1">
          <mxGeometry width="50" height="50" relative="1" as="geometry">
            <mxPoint x="266.21000000000004" y="170" as="sourcePoint" />
            <mxPoint x="169.91" y="60" as="targetPoint" />
          </mxGeometry>
        </mxCell>
        <mxCell id="Y_yuokefJySz5o6em_tS-48" value="" style="endArrow=classic;startArrow=classic;html=1;rounded=0;exitX=1;exitY=0.5;exitDx=0;exitDy=0;entryX=0;entryY=0.5;entryDx=0;entryDy=0;" parent="Y_yuokefJySz5o6em_tS-39" target="Y_yuokefJySz5o6em_tS-46" edge="1">
          <mxGeometry width="50" height="50" relative="1" as="geometry">
            <mxPoint x="196.21" y="209.83000000000004" as="sourcePoint" />
            <mxPoint x="232.41999999999913" y="210" as="targetPoint" />
          </mxGeometry>
        </mxCell>
        <mxCell id="Y_yuokefJySz5o6em_tS-133" value="&lt;div&gt;条件：删除后叶子节点元素数仍 ≥ ⌈m/2⌉-1&lt;br&gt;&lt;/div&gt;&lt;div&gt;操作：&lt;/div&gt;&lt;div&gt;1、直接在叶子节点中删除关键字&lt;/div&gt;&lt;div&gt;2、如果删除的是索引节点中的关键字，用叶子节点新的第一个关键字替换&lt;/div&gt;" style="text;strokeColor=none;align=left;fillColor=none;html=1;verticalAlign=middle;whiteSpace=wrap;rounded=0;" parent="1" vertex="1">
          <mxGeometry x="84" y="370" width="410" height="80" as="geometry" />
        </mxCell>
        <mxCell id="Y_yuokefJySz5o6em_tS-134" value="" style="html=1;shadow=0;dashed=0;align=center;verticalAlign=middle;shape=mxgraph.arrows2.arrow;dy=0.67;dx=20;notch=0;" parent="1" vertex="1">
          <mxGeometry x="374" y="225" width="126" height="20" as="geometry" />
        </mxCell>
        <mxCell id="Y_yuokefJySz5o6em_tS-136" value="" style="group" parent="1" vertex="1" connectable="0">
          <mxGeometry x="500" y="110" width="240" height="250" as="geometry" />
        </mxCell>
        <mxCell id="Y_yuokefJySz5o6em_tS-137" value="10" style="ellipse;whiteSpace=wrap;html=1;aspect=fixed;fillColor=#CCFFCC;" parent="Y_yuokefJySz5o6em_tS-136" vertex="1">
          <mxGeometry x="80" width="80" height="80" as="geometry" />
        </mxCell>
        <mxCell id="Y_yuokefJySz5o6em_tS-138" value="5" style="ellipse;whiteSpace=wrap;html=1;aspect=fixed;fillColor=#66FF66;" parent="Y_yuokefJySz5o6em_tS-136" vertex="1">
          <mxGeometry y="170" width="80" height="80" as="geometry" />
        </mxCell>
        <mxCell id="Y_yuokefJySz5o6em_tS-139" value="10，15" style="ellipse;whiteSpace=wrap;html=1;aspect=fixed;fillColor=#66FF66;" parent="Y_yuokefJySz5o6em_tS-136" vertex="1">
          <mxGeometry x="160" y="170" width="80" height="80" as="geometry" />
        </mxCell>
        <mxCell id="Y_yuokefJySz5o6em_tS-140" value="" style="endArrow=none;html=1;rounded=0;entryX=0.37;entryY=0.982;entryDx=0;entryDy=0;entryPerimeter=0;exitX=0.604;exitY=0.015;exitDx=0;exitDy=0;exitPerimeter=0;" parent="Y_yuokefJySz5o6em_tS-136" source="Y_yuokefJySz5o6em_tS-138" target="Y_yuokefJySz5o6em_tS-137" edge="1">
          <mxGeometry width="50" height="50" relative="1" as="geometry">
            <mxPoint x="70" y="170" as="sourcePoint" />
            <mxPoint x="118" y="78" as="targetPoint" />
          </mxGeometry>
        </mxCell>
        <mxCell id="Y_yuokefJySz5o6em_tS-141" value="" style="endArrow=none;html=1;rounded=0;exitX=0.47;exitY=-0.003;exitDx=0;exitDy=0;entryX=0.619;entryY=0.98;entryDx=0;entryDy=0;entryPerimeter=0;exitPerimeter=0;" parent="Y_yuokefJySz5o6em_tS-136" source="Y_yuokefJySz5o6em_tS-139" target="Y_yuokefJySz5o6em_tS-137" edge="1">
          <mxGeometry width="50" height="50" relative="1" as="geometry">
            <mxPoint x="190" y="169" as="sourcePoint" />
            <mxPoint x="140" y="80" as="targetPoint" />
          </mxGeometry>
        </mxCell>
        <mxCell id="Y_yuokefJySz5o6em_tS-142" value="" style="endArrow=classic;startArrow=classic;html=1;rounded=0;exitX=1;exitY=0.5;exitDx=0;exitDy=0;entryX=0;entryY=0.5;entryDx=0;entryDy=0;" parent="Y_yuokefJySz5o6em_tS-136" source="Y_yuokefJySz5o6em_tS-138" target="Y_yuokefJySz5o6em_tS-139" edge="1">
          <mxGeometry width="50" height="50" relative="1" as="geometry">
            <mxPoint x="100" y="210" as="sourcePoint" />
            <mxPoint x="150" y="210" as="targetPoint" />
          </mxGeometry>
        </mxCell>
        <mxCell id="Y_yuokefJySz5o6em_tS-143" value="&lt;div&gt;&lt;b&gt;情况1：简单删除（叶子节点元素充足）&lt;/b&gt;&lt;/div&gt;" style="text;strokeColor=none;align=left;fillColor=none;html=1;verticalAlign=middle;whiteSpace=wrap;rounded=0;" parent="1" vertex="1">
          <mxGeometry x="84" y="80" width="221" height="20" as="geometry" />
        </mxCell>
        <mxCell id="Y_yuokefJySz5o6em_tS-144" value="&lt;b&gt;情况2：向兄弟节点借元素（叶子节点）&lt;/b&gt;" style="text;strokeColor=none;align=center;fillColor=none;html=1;verticalAlign=middle;whiteSpace=wrap;rounded=0;" parent="1" vertex="1">
          <mxGeometry x="80" y="540" width="220" height="25" as="geometry" />
        </mxCell>
        <mxCell id="Y_yuokefJySz5o6em_tS-147" value="&lt;div&gt;条件：&lt;/div&gt;&lt;div&gt;1、删除后叶子节点元素数 &amp;lt; ⌈m/2⌉-1&lt;/div&gt;&lt;div&gt;2、相邻兄弟节点元素数 &amp;gt; ⌈m/2⌉-1&lt;/div&gt;&lt;div&gt;操作：&lt;/div&gt;&lt;div&gt;1、从兄弟节点借一个元素&lt;/div&gt;&lt;div&gt;2、更新父节点中的分隔键&lt;/div&gt;" style="text;strokeColor=none;align=left;fillColor=none;html=1;verticalAlign=middle;whiteSpace=wrap;rounded=0;" parent="1" vertex="1">
          <mxGeometry x="103.11" y="830" width="210" height="90" as="geometry" />
        </mxCell>
        <mxCell id="Y_yuokefJySz5o6em_tS-148" value="" style="group" parent="1" vertex="1" connectable="0">
          <mxGeometry x="450" y="570" width="316.21000000000004" height="250" as="geometry" />
        </mxCell>
        <mxCell id="Y_yuokefJySz5o6em_tS-149" value="25，40" style="ellipse;whiteSpace=wrap;html=1;aspect=fixed;fillColor=#CCFFCC;" parent="Y_yuokefJySz5o6em_tS-148" vertex="1">
          <mxGeometry x="109.91000000000003" width="80" height="80" as="geometry" />
        </mxCell>
        <mxCell id="Y_yuokefJySz5o6em_tS-150" value="10，20" style="ellipse;whiteSpace=wrap;html=1;aspect=fixed;fillColor=#66FF66;" parent="Y_yuokefJySz5o6em_tS-148" vertex="1">
          <mxGeometry y="170" width="80" height="80" as="geometry" />
        </mxCell>
        <mxCell id="Y_yuokefJySz5o6em_tS-151" value="25，30" style="ellipse;whiteSpace=wrap;html=1;aspect=fixed;fillColor=#66FF66;" parent="Y_yuokefJySz5o6em_tS-148" vertex="1">
          <mxGeometry x="116.21000000000001" y="170" width="80" height="80" as="geometry" />
        </mxCell>
        <mxCell id="Y_yuokefJySz5o6em_tS-152" value="" style="endArrow=none;html=1;rounded=0;entryX=0.37;entryY=0.982;entryDx=0;entryDy=0;entryPerimeter=0;exitX=0.604;exitY=0.015;exitDx=0;exitDy=0;exitPerimeter=0;" parent="Y_yuokefJySz5o6em_tS-148" source="Y_yuokefJySz5o6em_tS-150" target="Y_yuokefJySz5o6em_tS-149" edge="1">
          <mxGeometry width="50" height="50" relative="1" as="geometry">
            <mxPoint x="28.620000000000005" y="170" as="sourcePoint" />
            <mxPoint x="76.62" y="78" as="targetPoint" />
          </mxGeometry>
        </mxCell>
        <mxCell id="Y_yuokefJySz5o6em_tS-153" value="" style="endArrow=none;html=1;rounded=0;exitX=0.469;exitY=0.002;exitDx=0;exitDy=0;entryX=0.525;entryY=0.995;entryDx=0;entryDy=0;entryPerimeter=0;exitPerimeter=0;" parent="Y_yuokefJySz5o6em_tS-148" source="Y_yuokefJySz5o6em_tS-151" target="Y_yuokefJySz5o6em_tS-149" edge="1">
          <mxGeometry width="50" height="50" relative="1" as="geometry">
            <mxPoint x="148.61999999999998" y="169" as="sourcePoint" />
            <mxPoint x="98.62" y="80" as="targetPoint" />
          </mxGeometry>
        </mxCell>
        <mxCell id="Y_yuokefJySz5o6em_tS-154" value="" style="endArrow=classic;startArrow=classic;html=1;rounded=0;exitX=1;exitY=0.5;exitDx=0;exitDy=0;" parent="Y_yuokefJySz5o6em_tS-148" edge="1">
          <mxGeometry width="50" height="50" relative="1" as="geometry">
            <mxPoint x="80.00000000000091" y="209.83000000000004" as="sourcePoint" />
            <mxPoint x="116.21000000000001" y="210" as="targetPoint" />
          </mxGeometry>
        </mxCell>
        <mxCell id="Y_yuokefJySz5o6em_tS-155" value="40，45，50" style="ellipse;whiteSpace=wrap;html=1;aspect=fixed;fillColor=#66FF66;" parent="Y_yuokefJySz5o6em_tS-148" vertex="1">
          <mxGeometry x="236.21" y="170" width="80" height="80" as="geometry" />
        </mxCell>
        <mxCell id="Y_yuokefJySz5o6em_tS-156" value="" style="endArrow=none;html=1;rounded=0;entryX=0.646;entryY=0.978;entryDx=0;entryDy=0;entryPerimeter=0;exitX=0.378;exitY=0.016;exitDx=0;exitDy=0;exitPerimeter=0;" parent="Y_yuokefJySz5o6em_tS-148" source="Y_yuokefJySz5o6em_tS-155" target="Y_yuokefJySz5o6em_tS-149" edge="1">
          <mxGeometry width="50" height="50" relative="1" as="geometry">
            <mxPoint x="266.21000000000004" y="170" as="sourcePoint" />
            <mxPoint x="169.91" y="60" as="targetPoint" />
          </mxGeometry>
        </mxCell>
        <mxCell id="Y_yuokefJySz5o6em_tS-157" value="" style="endArrow=classic;startArrow=classic;html=1;rounded=0;exitX=1;exitY=0.5;exitDx=0;exitDy=0;entryX=0;entryY=0.5;entryDx=0;entryDy=0;" parent="Y_yuokefJySz5o6em_tS-148" target="Y_yuokefJySz5o6em_tS-155" edge="1">
          <mxGeometry width="50" height="50" relative="1" as="geometry">
            <mxPoint x="196.21" y="209.83000000000004" as="sourcePoint" />
            <mxPoint x="232.41999999999913" y="210" as="targetPoint" />
          </mxGeometry>
        </mxCell>
        <mxCell id="Y_yuokefJySz5o6em_tS-158" value="" style="html=1;shadow=0;dashed=0;align=center;verticalAlign=middle;shape=mxgraph.arrows2.arrow;dy=0.67;dx=20;notch=0;" parent="1" vertex="1">
          <mxGeometry x="371" y="660" width="126" height="20" as="geometry" />
        </mxCell>
        <mxCell id="Y_yuokefJySz5o6em_tS-159" value="&lt;b&gt;删除15&lt;/b&gt;" style="text;strokeColor=none;align=center;fillColor=none;html=1;verticalAlign=middle;whiteSpace=wrap;rounded=0;" parent="1" vertex="1">
          <mxGeometry x="414" y="645" width="46" height="15" as="geometry" />
        </mxCell>
        <mxCell id="Y_yuokefJySz5o6em_tS-160" value="&lt;b&gt;情况3：叶子节点合并&lt;/b&gt;" style="text;strokeColor=none;align=center;fillColor=none;html=1;verticalAlign=middle;whiteSpace=wrap;rounded=0;" parent="1" vertex="1">
          <mxGeometry x="84.00000000000001" y="1000" width="120" height="20" as="geometry" />
        </mxCell>
        <mxCell id="Y_yuokefJySz5o6em_tS-161" value="&lt;div&gt;条件：&lt;/div&gt;&lt;div&gt;1、删除后叶子节点元素数 &amp;lt; ⌈m/2⌉-1&lt;/div&gt;&lt;div&gt;2、相邻兄弟节点元素数 = ⌈m/2⌉-1&lt;/div&gt;&lt;div&gt;操作：&lt;/div&gt;&lt;div&gt;1、将两个叶子节点合并&lt;/div&gt;&lt;div&gt;2、删除父节点中的分隔键&lt;/div&gt;&lt;div&gt;3、可能需要递归调整父节点&lt;/div&gt;" style="text;strokeColor=none;align=left;fillColor=none;html=1;verticalAlign=middle;whiteSpace=wrap;rounded=0;" parent="1" vertex="1">
          <mxGeometry x="110.86" y="1290" width="214.5" height="110" as="geometry" />
        </mxCell>
        <mxCell id="Y_yuokefJySz5o6em_tS-162" value="" style="group" parent="1" vertex="1" connectable="0">
          <mxGeometry x="70" y="1030" width="316.21000000000004" height="250" as="geometry" />
        </mxCell>
        <mxCell id="Y_yuokefJySz5o6em_tS-163" value="10，20" style="ellipse;whiteSpace=wrap;html=1;aspect=fixed;fillColor=#CCFFCC;" parent="Y_yuokefJySz5o6em_tS-162" vertex="1">
          <mxGeometry x="109.91000000000003" width="80" height="80" as="geometry" />
        </mxCell>
        <mxCell id="Y_yuokefJySz5o6em_tS-164" value="5，8" style="ellipse;whiteSpace=wrap;html=1;aspect=fixed;fillColor=#66FF66;" parent="Y_yuokefJySz5o6em_tS-162" vertex="1">
          <mxGeometry y="170" width="80" height="80" as="geometry" />
        </mxCell>
        <mxCell id="Y_yuokefJySz5o6em_tS-165" value="10，12" style="ellipse;whiteSpace=wrap;html=1;aspect=fixed;fillColor=#66FF66;" parent="Y_yuokefJySz5o6em_tS-162" vertex="1">
          <mxGeometry x="116.21000000000001" y="170" width="80" height="80" as="geometry" />
        </mxCell>
        <mxCell id="Y_yuokefJySz5o6em_tS-166" value="" style="endArrow=none;html=1;rounded=0;entryX=0.37;entryY=0.982;entryDx=0;entryDy=0;entryPerimeter=0;exitX=0.604;exitY=0.015;exitDx=0;exitDy=0;exitPerimeter=0;" parent="Y_yuokefJySz5o6em_tS-162" source="Y_yuokefJySz5o6em_tS-164" target="Y_yuokefJySz5o6em_tS-163" edge="1">
          <mxGeometry width="50" height="50" relative="1" as="geometry">
            <mxPoint x="28.620000000000005" y="170" as="sourcePoint" />
            <mxPoint x="76.62" y="78" as="targetPoint" />
          </mxGeometry>
        </mxCell>
        <mxCell id="Y_yuokefJySz5o6em_tS-167" value="" style="endArrow=none;html=1;rounded=0;exitX=0.469;exitY=0.002;exitDx=0;exitDy=0;entryX=0.525;entryY=0.995;entryDx=0;entryDy=0;entryPerimeter=0;exitPerimeter=0;" parent="Y_yuokefJySz5o6em_tS-162" source="Y_yuokefJySz5o6em_tS-165" target="Y_yuokefJySz5o6em_tS-163" edge="1">
          <mxGeometry width="50" height="50" relative="1" as="geometry">
            <mxPoint x="148.61999999999998" y="169" as="sourcePoint" />
            <mxPoint x="98.62" y="80" as="targetPoint" />
          </mxGeometry>
        </mxCell>
        <mxCell id="Y_yuokefJySz5o6em_tS-168" value="" style="endArrow=classic;startArrow=classic;html=1;rounded=0;exitX=1;exitY=0.5;exitDx=0;exitDy=0;" parent="Y_yuokefJySz5o6em_tS-162" edge="1">
          <mxGeometry width="50" height="50" relative="1" as="geometry">
            <mxPoint x="80.00000000000091" y="209.83000000000004" as="sourcePoint" />
            <mxPoint x="116.21000000000001" y="210" as="targetPoint" />
          </mxGeometry>
        </mxCell>
        <mxCell id="Y_yuokefJySz5o6em_tS-169" value="20，25" style="ellipse;whiteSpace=wrap;html=1;aspect=fixed;fillColor=#66FF66;" parent="Y_yuokefJySz5o6em_tS-162" vertex="1">
          <mxGeometry x="236.21" y="170" width="80" height="80" as="geometry" />
        </mxCell>
        <mxCell id="Y_yuokefJySz5o6em_tS-170" value="" style="endArrow=none;html=1;rounded=0;entryX=0.646;entryY=0.978;entryDx=0;entryDy=0;entryPerimeter=0;exitX=0.378;exitY=0.016;exitDx=0;exitDy=0;exitPerimeter=0;" parent="Y_yuokefJySz5o6em_tS-162" source="Y_yuokefJySz5o6em_tS-169" target="Y_yuokefJySz5o6em_tS-163" edge="1">
          <mxGeometry width="50" height="50" relative="1" as="geometry">
            <mxPoint x="266.21000000000004" y="170" as="sourcePoint" />
            <mxPoint x="169.91" y="60" as="targetPoint" />
          </mxGeometry>
        </mxCell>
        <mxCell id="Y_yuokefJySz5o6em_tS-171" value="" style="endArrow=classic;startArrow=classic;html=1;rounded=0;exitX=1;exitY=0.5;exitDx=0;exitDy=0;entryX=0;entryY=0.5;entryDx=0;entryDy=0;" parent="Y_yuokefJySz5o6em_tS-162" target="Y_yuokefJySz5o6em_tS-169" edge="1">
          <mxGeometry width="50" height="50" relative="1" as="geometry">
            <mxPoint x="196.21" y="209.83000000000004" as="sourcePoint" />
            <mxPoint x="232.41999999999913" y="210" as="targetPoint" />
          </mxGeometry>
        </mxCell>
        <mxCell id="Y_yuokefJySz5o6em_tS-172" value="" style="group" parent="1" vertex="1" connectable="0">
          <mxGeometry x="480" y="1030" width="260.00000000000006" height="250" as="geometry" />
        </mxCell>
        <mxCell id="Y_yuokefJySz5o6em_tS-173" value="10" style="ellipse;whiteSpace=wrap;html=1;aspect=fixed;fillColor=#CCFFCC;" parent="Y_yuokefJySz5o6em_tS-172" vertex="1">
          <mxGeometry x="80" width="80" height="80" as="geometry" />
        </mxCell>
        <mxCell id="Y_yuokefJySz5o6em_tS-174" value="5，8" style="ellipse;whiteSpace=wrap;html=1;aspect=fixed;fillColor=#66FF66;" parent="Y_yuokefJySz5o6em_tS-172" vertex="1">
          <mxGeometry y="170" width="80" height="80" as="geometry" />
        </mxCell>
        <mxCell id="Y_yuokefJySz5o6em_tS-175" value="10，12，20" style="ellipse;whiteSpace=wrap;html=1;aspect=fixed;fillColor=#66FF66;" parent="Y_yuokefJySz5o6em_tS-172" vertex="1">
          <mxGeometry x="160" y="170" width="80" height="80" as="geometry" />
        </mxCell>
        <mxCell id="Y_yuokefJySz5o6em_tS-176" value="" style="endArrow=none;html=1;rounded=0;entryX=0.37;entryY=0.982;entryDx=0;entryDy=0;entryPerimeter=0;exitX=0.604;exitY=0.015;exitDx=0;exitDy=0;exitPerimeter=0;" parent="Y_yuokefJySz5o6em_tS-172" source="Y_yuokefJySz5o6em_tS-174" target="Y_yuokefJySz5o6em_tS-173" edge="1">
          <mxGeometry width="50" height="50" relative="1" as="geometry">
            <mxPoint x="70" y="170" as="sourcePoint" />
            <mxPoint x="118" y="78" as="targetPoint" />
          </mxGeometry>
        </mxCell>
        <mxCell id="Y_yuokefJySz5o6em_tS-177" value="" style="endArrow=none;html=1;rounded=0;exitX=0.47;exitY=-0.003;exitDx=0;exitDy=0;entryX=0.619;entryY=0.98;entryDx=0;entryDy=0;entryPerimeter=0;exitPerimeter=0;" parent="Y_yuokefJySz5o6em_tS-172" source="Y_yuokefJySz5o6em_tS-175" target="Y_yuokefJySz5o6em_tS-173" edge="1">
          <mxGeometry width="50" height="50" relative="1" as="geometry">
            <mxPoint x="190" y="169" as="sourcePoint" />
            <mxPoint x="140" y="80" as="targetPoint" />
          </mxGeometry>
        </mxCell>
        <mxCell id="Y_yuokefJySz5o6em_tS-178" value="" style="endArrow=classic;startArrow=classic;html=1;rounded=0;exitX=1;exitY=0.5;exitDx=0;exitDy=0;entryX=0;entryY=0.5;entryDx=0;entryDy=0;" parent="Y_yuokefJySz5o6em_tS-172" source="Y_yuokefJySz5o6em_tS-174" target="Y_yuokefJySz5o6em_tS-175" edge="1">
          <mxGeometry width="50" height="50" relative="1" as="geometry">
            <mxPoint x="100" y="210" as="sourcePoint" />
            <mxPoint x="150" y="210" as="targetPoint" />
          </mxGeometry>
        </mxCell>
        <mxCell id="Y_yuokefJySz5o6em_tS-179" value="" style="html=1;shadow=0;dashed=0;align=center;verticalAlign=middle;shape=mxgraph.arrows2.arrow;dy=0.67;dx=20;notch=0;" parent="1" vertex="1">
          <mxGeometry x="376.5" y="1130" width="126" height="20" as="geometry" />
        </mxCell>
        <mxCell id="Y_yuokefJySz5o6em_tS-180" value="&lt;b&gt;删除25&lt;/b&gt;" style="text;strokeColor=none;align=center;fillColor=none;html=1;verticalAlign=middle;whiteSpace=wrap;rounded=0;" parent="1" vertex="1">
          <mxGeometry x="411.5" y="1110" width="51" height="20" as="geometry" />
        </mxCell>
        <mxCell id="Y_yuokefJySz5o6em_tS-181" value="&lt;div&gt;&lt;b&gt;情况4：索引节点调整&lt;/b&gt;&lt;/div&gt;&lt;div&gt;当叶子节点合并或借元素导致索引节点不满足条件时，需调整&lt;/div&gt;&lt;div&gt;&lt;br&gt;&lt;/div&gt;&lt;div&gt;&lt;b&gt;子情况4.1：向兄弟索引节点借元素&lt;/b&gt;&lt;br&gt;&lt;/div&gt;" style="text;strokeColor=none;align=left;fillColor=none;html=1;verticalAlign=middle;whiteSpace=wrap;rounded=0;" parent="1" vertex="1">
          <mxGeometry x="84" y="1480" width="350" height="60" as="geometry" />
        </mxCell>
        <mxCell id="Y_yuokefJySz5o6em_tS-182" value="&lt;div&gt;条件：&lt;/div&gt;&lt;div&gt;1、索引节点元素不足&lt;/div&gt;&lt;div&gt;2、兄弟索引节点元素充足&lt;/div&gt;&lt;div&gt;操作：&lt;/div&gt;&lt;div&gt;1、从兄弟节点借一个元素&lt;/div&gt;&lt;div&gt;2、调整父节点的分隔键&lt;/div&gt;" style="text;strokeColor=none;align=left;fillColor=none;html=1;verticalAlign=middle;whiteSpace=wrap;rounded=0;" parent="1" vertex="1">
          <mxGeometry x="163" y="1840" width="160" height="90" as="geometry" />
        </mxCell>
        <mxCell id="Y_yuokefJySz5o6em_tS-195" value="&lt;b&gt;子情况4.2：索引节点合并&lt;/b&gt;" style="text;strokeColor=none;align=center;fillColor=none;html=1;verticalAlign=middle;whiteSpace=wrap;rounded=0;" parent="1" vertex="1">
          <mxGeometry x="84.00000000000001" y="2010" width="146" height="20" as="geometry" />
        </mxCell>
        <mxCell id="Y_yuokefJySz5o6em_tS-196" value="&lt;div&gt;条件：&lt;/div&gt;&lt;div&gt;1、索引节点元素不足&lt;/div&gt;&lt;div&gt;2、兄弟索引节点也无法借出元素&lt;/div&gt;&lt;div&gt;操作：&lt;/div&gt;&lt;div&gt;1、合并索引节点&lt;/div&gt;&lt;div&gt;2、树的高度可能减少&lt;/div&gt;" style="text;strokeColor=none;align=left;fillColor=none;html=1;verticalAlign=middle;whiteSpace=wrap;rounded=0;" parent="1" vertex="1">
          <mxGeometry x="115.66000000000003" y="2300" width="204.89" height="100" as="geometry" />
        </mxCell>
        <mxCell id="Y_yuokefJySz5o6em_tS-197" value="" style="group" parent="1" vertex="1" connectable="0">
          <mxGeometry x="100" y="2040" width="260.00000000000006" height="250" as="geometry" />
        </mxCell>
        <mxCell id="Y_yuokefJySz5o6em_tS-198" value="10" style="ellipse;whiteSpace=wrap;html=1;aspect=fixed;fillColor=#CCFFCC;" parent="Y_yuokefJySz5o6em_tS-197" vertex="1">
          <mxGeometry x="80" width="80" height="80" as="geometry" />
        </mxCell>
        <mxCell id="Y_yuokefJySz5o6em_tS-199" value="5" style="ellipse;whiteSpace=wrap;html=1;aspect=fixed;fillColor=#66FF66;" parent="Y_yuokefJySz5o6em_tS-197" vertex="1">
          <mxGeometry y="170" width="80" height="80" as="geometry" />
        </mxCell>
        <mxCell id="Y_yuokefJySz5o6em_tS-200" value="10，15" style="ellipse;whiteSpace=wrap;html=1;aspect=fixed;fillColor=#66FF66;" parent="Y_yuokefJySz5o6em_tS-197" vertex="1">
          <mxGeometry x="160" y="170" width="80" height="80" as="geometry" />
        </mxCell>
        <mxCell id="Y_yuokefJySz5o6em_tS-201" value="" style="endArrow=none;html=1;rounded=0;entryX=0.37;entryY=0.982;entryDx=0;entryDy=0;entryPerimeter=0;exitX=0.604;exitY=0.015;exitDx=0;exitDy=0;exitPerimeter=0;" parent="Y_yuokefJySz5o6em_tS-197" source="Y_yuokefJySz5o6em_tS-199" target="Y_yuokefJySz5o6em_tS-198" edge="1">
          <mxGeometry width="50" height="50" relative="1" as="geometry">
            <mxPoint x="70" y="170" as="sourcePoint" />
            <mxPoint x="118" y="78" as="targetPoint" />
          </mxGeometry>
        </mxCell>
        <mxCell id="Y_yuokefJySz5o6em_tS-202" value="" style="endArrow=none;html=1;rounded=0;exitX=0.47;exitY=-0.003;exitDx=0;exitDy=0;entryX=0.619;entryY=0.98;entryDx=0;entryDy=0;entryPerimeter=0;exitPerimeter=0;" parent="Y_yuokefJySz5o6em_tS-197" source="Y_yuokefJySz5o6em_tS-200" target="Y_yuokefJySz5o6em_tS-198" edge="1">
          <mxGeometry width="50" height="50" relative="1" as="geometry">
            <mxPoint x="190" y="169" as="sourcePoint" />
            <mxPoint x="140" y="80" as="targetPoint" />
          </mxGeometry>
        </mxCell>
        <mxCell id="Y_yuokefJySz5o6em_tS-203" value="" style="endArrow=classic;startArrow=classic;html=1;rounded=0;exitX=1;exitY=0.5;exitDx=0;exitDy=0;entryX=0;entryY=0.5;entryDx=0;entryDy=0;" parent="Y_yuokefJySz5o6em_tS-197" source="Y_yuokefJySz5o6em_tS-199" target="Y_yuokefJySz5o6em_tS-200" edge="1">
          <mxGeometry width="50" height="50" relative="1" as="geometry">
            <mxPoint x="100" y="210" as="sourcePoint" />
            <mxPoint x="150" y="210" as="targetPoint" />
          </mxGeometry>
        </mxCell>
        <mxCell id="Y_yuokefJySz5o6em_tS-204" value="10，15" style="ellipse;whiteSpace=wrap;html=1;aspect=fixed;fillColor=#66FF66;" parent="1" vertex="1">
          <mxGeometry x="570" y="2110" width="80" height="80" as="geometry" />
        </mxCell>
        <mxCell id="Y_yuokefJySz5o6em_tS-205" value="" style="html=1;shadow=0;dashed=0;align=center;verticalAlign=middle;shape=mxgraph.arrows2.arrow;dy=0.67;dx=20;notch=0;" parent="1" vertex="1">
          <mxGeometry x="371" y="2140" width="126" height="20" as="geometry" />
        </mxCell>
        <mxCell id="Y_yuokefJySz5o6em_tS-206" value="&lt;b&gt;删除5&lt;/b&gt;" style="text;strokeColor=none;align=center;fillColor=none;html=1;verticalAlign=middle;whiteSpace=wrap;rounded=0;" parent="1" vertex="1">
          <mxGeometry x="417.95" y="2120" width="38.11" height="20" as="geometry" />
        </mxCell>
        <mxCell id="Y_yuokefJySz5o6em_tS-135" value="&lt;b&gt;删除8&lt;/b&gt;" style="text;strokeColor=none;align=center;fillColor=none;html=1;verticalAlign=middle;whiteSpace=wrap;rounded=0;" parent="1" vertex="1">
          <mxGeometry x="414" y="205" width="40" height="20" as="geometry" />
        </mxCell>
        <mxCell id="Y_yuokefJySz5o6em_tS-193" value="" style="html=1;shadow=0;dashed=0;align=center;verticalAlign=middle;shape=mxgraph.arrows2.arrow;dy=0.67;dx=20;notch=0;" parent="1" vertex="1">
          <mxGeometry x="450" y="1640" width="126" height="20" as="geometry" />
        </mxCell>
        <mxCell id="Y_yuokefJySz5o6em_tS-194" value="&lt;b&gt;删除11&lt;/b&gt;" style="text;strokeColor=none;align=center;fillColor=none;html=1;verticalAlign=middle;whiteSpace=wrap;rounded=0;" parent="1" vertex="1">
          <mxGeometry x="486.5" y="1620" width="53" height="20" as="geometry" />
        </mxCell>
        <mxCell id="Pddwpb_raFPEHlrr-nRU-3" value="" style="group" parent="1" vertex="1" connectable="0">
          <mxGeometry x="50" y="1550" width="440" height="280" as="geometry" />
        </mxCell>
        <mxCell id="Y_yuokefJySz5o6em_tS-63" value="10，20，30" style="ellipse;whiteSpace=wrap;html=1;aspect=fixed;fillColor=#CCFFCC;" parent="Pddwpb_raFPEHlrr-nRU-3" vertex="1">
          <mxGeometry x="174.39999999999998" width="80" height="80" as="geometry" />
        </mxCell>
        <mxCell id="Y_yuokefJySz5o6em_tS-64" value="1，2" style="ellipse;whiteSpace=wrap;html=1;aspect=fixed;fillColor=#66FF66;" parent="Pddwpb_raFPEHlrr-nRU-3" vertex="1">
          <mxGeometry y="200" width="80" height="80" as="geometry" />
        </mxCell>
        <mxCell id="Y_yuokefJySz5o6em_tS-65" value="10，11" style="ellipse;whiteSpace=wrap;html=1;aspect=fixed;fillColor=#66FF66;" parent="Pddwpb_raFPEHlrr-nRU-3" vertex="1">
          <mxGeometry x="116.21000000000004" y="200" width="80" height="80" as="geometry" />
        </mxCell>
        <mxCell id="Y_yuokefJySz5o6em_tS-66" value="" style="endArrow=none;html=1;rounded=0;entryX=0.275;entryY=0.948;entryDx=0;entryDy=0;entryPerimeter=0;exitX=0.604;exitY=0.015;exitDx=0;exitDy=0;exitPerimeter=0;" parent="Pddwpb_raFPEHlrr-nRU-3" source="Y_yuokefJySz5o6em_tS-64" target="Y_yuokefJySz5o6em_tS-63" edge="1">
          <mxGeometry width="50" height="50" relative="1" as="geometry">
            <mxPoint x="28.620000000000005" y="200" as="sourcePoint" />
            <mxPoint x="76.62" y="108" as="targetPoint" />
          </mxGeometry>
        </mxCell>
        <mxCell id="Y_yuokefJySz5o6em_tS-67" value="" style="endArrow=none;html=1;rounded=0;exitX=0.469;exitY=0.002;exitDx=0;exitDy=0;exitPerimeter=0;entryX=0.42;entryY=0.99;entryDx=0;entryDy=0;entryPerimeter=0;" parent="Pddwpb_raFPEHlrr-nRU-3" source="Y_yuokefJySz5o6em_tS-65" target="Y_yuokefJySz5o6em_tS-63" edge="1">
          <mxGeometry width="50" height="50" relative="1" as="geometry">
            <mxPoint x="148.62" y="199" as="sourcePoint" />
            <mxPoint x="208" y="109" as="targetPoint" />
          </mxGeometry>
        </mxCell>
        <mxCell id="Y_yuokefJySz5o6em_tS-68" value="" style="endArrow=classic;startArrow=classic;html=1;rounded=0;exitX=1;exitY=0.5;exitDx=0;exitDy=0;" parent="Pddwpb_raFPEHlrr-nRU-3" edge="1">
          <mxGeometry width="50" height="50" relative="1" as="geometry">
            <mxPoint x="80.00000000000091" y="239.82999999999993" as="sourcePoint" />
            <mxPoint x="116.21000000000004" y="240" as="targetPoint" />
          </mxGeometry>
        </mxCell>
        <mxCell id="Y_yuokefJySz5o6em_tS-69" value="20，21" style="ellipse;whiteSpace=wrap;html=1;aspect=fixed;fillColor=#66FF66;" parent="Pddwpb_raFPEHlrr-nRU-3" vertex="1">
          <mxGeometry x="236.21000000000004" y="200" width="80" height="80" as="geometry" />
        </mxCell>
        <mxCell id="Y_yuokefJySz5o6em_tS-70" value="" style="endArrow=none;html=1;rounded=0;entryX=0.571;entryY=0.997;entryDx=0;entryDy=0;entryPerimeter=0;exitX=0.378;exitY=0.016;exitDx=0;exitDy=0;exitPerimeter=0;" parent="Pddwpb_raFPEHlrr-nRU-3" source="Y_yuokefJySz5o6em_tS-69" target="Y_yuokefJySz5o6em_tS-63" edge="1">
          <mxGeometry width="50" height="50" relative="1" as="geometry">
            <mxPoint x="266.21000000000004" y="200" as="sourcePoint" />
            <mxPoint x="169.90999999999997" y="90" as="targetPoint" />
          </mxGeometry>
        </mxCell>
        <mxCell id="Y_yuokefJySz5o6em_tS-71" value="" style="endArrow=classic;startArrow=classic;html=1;rounded=0;exitX=1;exitY=0.5;exitDx=0;exitDy=0;entryX=0;entryY=0.5;entryDx=0;entryDy=0;" parent="Pddwpb_raFPEHlrr-nRU-3" target="Y_yuokefJySz5o6em_tS-69" edge="1">
          <mxGeometry width="50" height="50" relative="1" as="geometry">
            <mxPoint x="196.21000000000004" y="239.82999999999993" as="sourcePoint" />
            <mxPoint x="232.41999999999916" y="240" as="targetPoint" />
          </mxGeometry>
        </mxCell>
        <mxCell id="Y_yuokefJySz5o6em_tS-72" value="30，31" style="ellipse;whiteSpace=wrap;html=1;aspect=fixed;fillColor=#66FF66;" parent="Pddwpb_raFPEHlrr-nRU-3" vertex="1">
          <mxGeometry x="360" y="200" width="80" height="80" as="geometry" />
        </mxCell>
        <mxCell id="Y_yuokefJySz5o6em_tS-73" value="" style="endArrow=classic;startArrow=classic;html=1;rounded=0;exitX=1;exitY=0.5;exitDx=0;exitDy=0;entryX=0;entryY=0.5;entryDx=0;entryDy=0;" parent="Pddwpb_raFPEHlrr-nRU-3" target="Y_yuokefJySz5o6em_tS-72" edge="1">
          <mxGeometry width="50" height="50" relative="1" as="geometry">
            <mxPoint x="316.21000000000004" y="239.82999999999993" as="sourcePoint" />
            <mxPoint x="356" y="240" as="targetPoint" />
          </mxGeometry>
        </mxCell>
        <mxCell id="Y_yuokefJySz5o6em_tS-74" value="" style="endArrow=none;html=1;rounded=0;entryX=0.695;entryY=0.964;entryDx=0;entryDy=0;entryPerimeter=0;exitX=0.394;exitY=0.011;exitDx=0;exitDy=0;exitPerimeter=0;" parent="Pddwpb_raFPEHlrr-nRU-3" source="Y_yuokefJySz5o6em_tS-72" target="Y_yuokefJySz5o6em_tS-63" edge="1">
          <mxGeometry width="50" height="50" relative="1" as="geometry">
            <mxPoint x="340.21000000000004" y="200" as="sourcePoint" />
            <mxPoint x="236.21000000000004" y="107" as="targetPoint" />
          </mxGeometry>
        </mxCell>
        <mxCell id="Pddwpb_raFPEHlrr-nRU-5" value="" style="group" parent="1" vertex="1" connectable="0">
          <mxGeometry x="550" y="1550" width="316.21000000000004" height="280" as="geometry" />
        </mxCell>
        <mxCell id="Y_yuokefJySz5o6em_tS-184" value="20，30" style="ellipse;whiteSpace=wrap;html=1;aspect=fixed;fillColor=#CCFFCC;" parent="Pddwpb_raFPEHlrr-nRU-5" vertex="1">
          <mxGeometry x="110.00000000000011" width="80" height="80" as="geometry" />
        </mxCell>
        <mxCell id="Y_yuokefJySz5o6em_tS-185" value="1，2，10" style="ellipse;whiteSpace=wrap;html=1;aspect=fixed;fillColor=#66FF66;" parent="Pddwpb_raFPEHlrr-nRU-5" vertex="1">
          <mxGeometry y="200" width="80" height="80" as="geometry" />
        </mxCell>
        <mxCell id="Y_yuokefJySz5o6em_tS-186" value="20，21" style="ellipse;whiteSpace=wrap;html=1;aspect=fixed;fillColor=#66FF66;" parent="Pddwpb_raFPEHlrr-nRU-5" vertex="1">
          <mxGeometry x="116.21000000000004" y="200" width="80" height="80" as="geometry" />
        </mxCell>
        <mxCell id="Y_yuokefJySz5o6em_tS-187" value="" style="endArrow=none;html=1;rounded=0;entryX=0.37;entryY=0.982;entryDx=0;entryDy=0;entryPerimeter=0;exitX=0.604;exitY=0.015;exitDx=0;exitDy=0;exitPerimeter=0;" parent="Pddwpb_raFPEHlrr-nRU-5" source="Y_yuokefJySz5o6em_tS-185" target="Y_yuokefJySz5o6em_tS-184" edge="1">
          <mxGeometry width="50" height="50" relative="1" as="geometry">
            <mxPoint x="28.620000000000005" y="200" as="sourcePoint" />
            <mxPoint x="76.62" y="108" as="targetPoint" />
          </mxGeometry>
        </mxCell>
        <mxCell id="Y_yuokefJySz5o6em_tS-188" value="" style="endArrow=none;html=1;rounded=0;exitX=0.469;exitY=0.002;exitDx=0;exitDy=0;entryX=0.525;entryY=0.995;entryDx=0;entryDy=0;entryPerimeter=0;exitPerimeter=0;" parent="Pddwpb_raFPEHlrr-nRU-5" source="Y_yuokefJySz5o6em_tS-186" target="Y_yuokefJySz5o6em_tS-184" edge="1">
          <mxGeometry width="50" height="50" relative="1" as="geometry">
            <mxPoint x="148.62" y="199" as="sourcePoint" />
            <mxPoint x="98.62" y="110" as="targetPoint" />
          </mxGeometry>
        </mxCell>
        <mxCell id="Y_yuokefJySz5o6em_tS-189" value="" style="endArrow=classic;startArrow=classic;html=1;rounded=0;exitX=1;exitY=0.5;exitDx=0;exitDy=0;" parent="Pddwpb_raFPEHlrr-nRU-5" edge="1">
          <mxGeometry width="50" height="50" relative="1" as="geometry">
            <mxPoint x="80.00000000000091" y="239.82999999999993" as="sourcePoint" />
            <mxPoint x="116.21000000000004" y="240" as="targetPoint" />
          </mxGeometry>
        </mxCell>
        <mxCell id="Y_yuokefJySz5o6em_tS-190" value="30，31" style="ellipse;whiteSpace=wrap;html=1;aspect=fixed;fillColor=#66FF66;" parent="Pddwpb_raFPEHlrr-nRU-5" vertex="1">
          <mxGeometry x="236.21000000000004" y="200" width="80" height="80" as="geometry" />
        </mxCell>
        <mxCell id="Y_yuokefJySz5o6em_tS-191" value="" style="endArrow=none;html=1;rounded=0;entryX=0.646;entryY=0.978;entryDx=0;entryDy=0;entryPerimeter=0;exitX=0.378;exitY=0.016;exitDx=0;exitDy=0;exitPerimeter=0;" parent="Pddwpb_raFPEHlrr-nRU-5" source="Y_yuokefJySz5o6em_tS-190" target="Y_yuokefJySz5o6em_tS-184" edge="1">
          <mxGeometry width="50" height="50" relative="1" as="geometry">
            <mxPoint x="266.21000000000004" y="200" as="sourcePoint" />
            <mxPoint x="169.90999999999997" y="90" as="targetPoint" />
          </mxGeometry>
        </mxCell>
        <mxCell id="Y_yuokefJySz5o6em_tS-192" value="" style="endArrow=classic;startArrow=classic;html=1;rounded=0;exitX=1;exitY=0.5;exitDx=0;exitDy=0;entryX=0;entryY=0.5;entryDx=0;entryDy=0;" parent="Pddwpb_raFPEHlrr-nRU-5" target="Y_yuokefJySz5o6em_tS-190" edge="1">
          <mxGeometry width="50" height="50" relative="1" as="geometry">
            <mxPoint x="196.21000000000004" y="239.82999999999993" as="sourcePoint" />
            <mxPoint x="232.41999999999916" y="240" as="targetPoint" />
          </mxGeometry>
        </mxCell>
      </root>
    </mxGraphModel>
  </diagram>
</mxfile>
